<?xml version="1.0" encoding="UTF-8"?>
<!DOCTYPE svg PUBLIC "-//W3C//DTD SVG 1.1//EN" "http://www.w3.org/Graphics/SVG/1.1/DTD/svg11.dtd">
<svg version="1.1" id="Layer_1" xmlns="http://www.w3.org/2000/svg" xmlns:xlink="http://www.w3.org/1999/xlink" x="0px" y="0px" width="32px" height="32px" viewBox="0 0 32 32" enable-background="new 0 0 32 32" xml:space="preserve">
  <g id="main">
    <g id="icon">
      <path d="M17.92,0.06895L17.37,0.2633L17.08,0.3658L16.82,0.5566L0.3713,17.06L0.1375,17.42L0.05938,17.82L0.1375,18.22L0.3713,18.57L11.48,29.72L11.83,29.95L12.23,30.03L12.63,29.95L12.98,29.72L13.45,29.25L13.43,29.11L13.4,28.56L13.45,27.91L13.59,27.29L13.82,26.7L14.13,26.15L14.51,25.65L14.96,25.2L15.48,24.82L16.06,24.51L16.37,23.55L16.82,22.68L17.4,21.91L18.09,21.25L18.88,20.7L19.74,20.3L20.67,20.05L21.65,19.96L22.39,20.01L22.61,20.05L29.43,13.21L29.59,13.01L29.69,12.79L29.92,12.19L30,11.53L30,2.651L29.95,2.116L29.79,1.619L29.55,1.169L29.23,0.7764L28.84,0.4527L28.39,0.2082L27.89,0.05391L27.36,0L18.51,0zM25.33,2.903L25.77,3.039L26.16,3.253L26.51,3.536L26.79,3.88L27.01,4.274L27.14,4.71L27.19,5.178L27.14,5.646L27.01,6.082L26.79,6.477L26.51,6.82L26.16,7.104L25.77,7.318L25.33,7.453L24.86,7.5L24.4,7.453L23.96,7.318L23.56,7.104L23.22,6.82L22.94,6.477L22.72,6.082L22.59,5.646L22.54,5.178L22.59,4.71L22.72,4.274L22.94,3.88L23.22,3.536L23.56,3.253L23.96,3.039L24.4,2.903L24.86,2.856zz" fill-rule="evenodd" fill="#217346"/>
    </g>
    <g id="overlay">
      <path d="M31.9845,27.7949c0,-2.3443,-1.8979,-4.2448,-4.2391,-4.2448c-0.6185,0,-1.2055,0.1337,-1.7353,0.3722c-0.7384,-1.745,-2.4108,-2.9635,-4.3569,-2.9635c-2.4065,0,-4.3947,1.8626,-4.7151,4.2808c-1.4701,0.4469,-2.5357,1.7659,-2.5357,3.3239c0,3.1104,3.0269,3.4085,5.0358,3.416c0.0408,0.0181,0.0842,0.0206,0.1302,0.0206h8.5886c0.0487,0,0.146,-0.0028,0.2671,-0.0241C30.67,31.8952,31.9845,30.0864,31.9845,27.7949z" fill-rule="evenodd" fill="#797979"/>
    </g>
  </g>
</svg>