<?xml version="1.0" encoding="UTF-8"?>
<!DOCTYPE svg PUBLIC "-//W3C//DTD SVG 1.1//EN" "http://www.w3.org/Graphics/SVG/1.1/DTD/svg11.dtd">
<svg version="1.1" id="Layer_1" xmlns="http://www.w3.org/2000/svg" xmlns:xlink="http://www.w3.org/1999/xlink" x="0px" y="0px" width="16px" height="16px" viewBox="0 0 16 16" enable-background="new 0 0 16 16" xml:space="preserve">
  <g id="main">
    <g id="icon">
      <path d="M8.969,0.0377L8.694,0.1379L8.418,0.2877L0.1566,8.528L0.03906,8.705L-0,8.906L0.03906,9.106L0.1566,9.283L3.997,13.11L4.024,12.98L4.171,12.58L4.371,12.2L4.621,11.85L4.916,11.54L5.254,11.27L5.631,11.04L5.862,10.41L6.185,9.84L6.588,9.332L7.063,8.897L7.598,8.544L8.185,8.28L8.813,8.116L9.472,8.059L9.951,8.088L10.42,8.175L10.86,8.316L11.29,8.509L11.69,8.751L12.06,9.039L12.19,9.164L14.75,6.606L14.86,6.396L14.97,6.097L15,5.768L15,1.336L14.97,1.069L14.9,0.8189L14.63,0.3939L14.44,0.2301L14.22,0.1061L13.98,0.02734L13.71,0L9.268,0zM12.69,1.779L13.06,2.027L13.31,2.396L13.4,2.847L13.31,3.298L13.06,3.666L12.69,3.914L12.23,4.006L11.78,3.914L11.4,3.666L11.15,3.298L11.06,2.847L11.15,2.396L11.4,2.027L11.78,1.779L12.23,1.688zz" fill-rule="evenodd" fill="#217346"/>
    </g>
    <g id="overlay">
      <path d="M15.9845,13.3676c0,-1.4776,-1.1963,-2.6755,-2.6719,-2.6755c-0.3899,0,-0.7598,0.0843,-1.0938,0.2346c-0.4654,-1.0999,-1.5195,-1.8679,-2.7462,-1.8679c-1.5168,0,-2.77,1.174,-2.9719,2.6982c-0.9266,0.2817,-1.5982,1.113,-1.5982,2.0951c0,1.9605,1.9079,2.1393,3.1741,2.1441c0.0257,0.0114,0.0531,0.0039,0.0821,0.0039h5.4135c0.0307,0,0.092,0.0073,0.1683,-0.0061C15.156,15.943,15.9845,14.812,15.9845,13.3676z" fill-rule="evenodd" fill="#797979"/>
    </g>
  </g>
</svg>